<?xml version="1.0" encoding="UTF-8"?>
<svg id="Capa_1" data-name="Capa 1" xmlns="http://www.w3.org/2000/svg" viewBox="0 0 209 102.5">
  <defs>
    <style>
      .cls-1 {
        fill: #fff;
      }

      .cls-2 {
        fill: #ed1e79;
      }
    </style>
  </defs>
  <g>
    <path class="cls-2" d="M32.97,22.35c-2.57-2.34-5.87-3.53-9.85-3.53-5.45,0-10.14,1.91-13.93,5.69-3.79,3.78-5.71,8.34-5.71,13.57s1.92,9.72,5.71,13.51c3.79,3.79,8.48,5.71,13.93,5.71,3.98,0,7.28-1.19,9.85-3.56v2.72h9.41V21.45h-9.41v.91Zm-9.85,26.21c-2.74,0-5.06-.98-7.09-3.01-2.02-2.02-3.01-4.47-3.01-7.47s.99-5.5,3.01-7.54c2.02-2.04,4.34-3.04,7.08-3.04s5.04,1.02,7.12,3.11c1.43,1.43,2.33,3.08,2.73,5.04v4.8c-.4,1.95-1.29,3.6-2.73,5.04-2.07,2.07-4.4,3.08-7.12,3.08Z"/>
    <path class="cls-1" d="M69.16,23.86c-2.76-2.76-6.41-4.16-10.84-4.16-3.39,0-5.77,.57-7.24,1.75h-7.27V56.47h9.41V31.45c.26-.49,.68-1.02,1.25-1.59,1.13-1.07,2.39-1.59,3.85-1.59s2.78,.56,3.95,1.71c1.17,1.14,1.74,2.55,1.74,4.29v22.19h9.38v-22.49c-.05-3.96-1.47-7.37-4.23-10.12Z"/>
    <path class="cls-1" d="M101.72,22.35c-2.57-2.34-5.87-3.53-9.85-3.53-5.45,0-10.14,1.91-13.93,5.69-3.79,3.78-5.71,8.34-5.71,13.57s1.92,9.72,5.71,13.51c3.79,3.79,8.48,5.71,13.93,5.71,3.98,0,7.28-1.19,9.85-3.56v2.72h9.41V3.1h-9.41V22.35Zm-9.85,26.21c-2.74,0-5.06-.98-7.09-3.01-2.02-2.02-3.01-4.47-3.01-7.47s.99-5.5,3.01-7.54c2.02-2.04,4.34-3.04,7.08-3.04s5.04,1.02,7.12,3.11c1.43,1.43,2.33,3.08,2.73,5.04v4.8c-.4,1.95-1.29,3.6-2.73,5.04-2.07,2.07-4.4,3.08-7.12,3.08Z"/>
    <path class="cls-1" d="M127.07,20.48l-1.19,.38c-1.57,.5-2.9,1.18-4,2.05v-1.46h-9.41V56.47h9.41v-18.31c0-2.44,.66-4.39,2.01-5.97,1.35-1.58,3.24-2.53,5.77-2.92l2.21-.34-4.8-8.45Z"/>
    <path class="cls-1" d="M147.04,18.83c-5.45,0-10.14,1.91-13.93,5.69-3.79,3.78-5.71,8.34-5.71,13.57s1.92,9.72,5.71,13.51c3.79,3.79,8.48,5.71,13.93,5.71s10.23-1.95,14.04-5.79c1.25-1.23,2.37-2.66,3.32-4.26l.96-1.62-8.74-3.08-.69,.84c-1.11,1.37-1.58,1.89-1.78,2.09-2.07,2.07-4.4,3.08-7.12,3.08s-5.06-.98-7.09-3.01c-1.69-1.69-2.66-3.67-2.93-6.03h29.1v-1.54c0-5.52-1.69-10.03-5.03-13.39-3.82-3.82-8.55-5.76-14.05-5.76Zm-.23,8.14c4.78,0,8.1,2.25,10.06,6.86h-20.23c2.01-4.61,5.36-6.86,10.16-6.86Z"/>
    <path class="cls-2" d="M193.29,21.45v.91c-2.57-2.34-5.87-3.53-9.85-3.53-5.45,0-10.14,1.91-13.93,5.69-3.79,3.78-5.71,8.34-5.71,13.57s1.92,9.72,5.71,13.51c3.79,3.79,8.48,5.71,13.93,5.71,3.98,0,7.28-1.19,9.85-3.56v2.72h9.41V21.45h-9.41Zm-9.85,27.11c-2.74,0-5.06-.98-7.09-3.01-2.02-2.02-3.01-4.47-3.01-7.47s.99-5.5,3.01-7.54c2.02-2.04,4.34-3.04,7.08-3.04s5.04,1.02,7.12,3.11c1.43,1.43,2.33,3.08,2.73,5.04v4.8c-.4,1.95-1.29,3.6-2.73,5.04-2.07,2.07-4.4,3.08-7.12,3.08Z"/>
  </g>
  <g>
    <path class="cls-1" d="M17.1,93.94c0,1.69-.61,3.12-1.82,4.28-1.22,1.16-3.12,1.75-5.71,1.75v-3.25c1.4,0,2.34-.23,2.82-.69,.52-.52,.78-1.29,.78-2.3v-30.7h3.93v30.92Z"/>
    <path class="cls-1" d="M34.41,63.02l11.3,31.22h-4.08l-4.71-12.97h-8.48l-4.8,12.97h-4.1l11.46-31.22h3.41Zm1.28,14.86l-2.99-8.29-3.02,8.29h6.01Z"/>
    <path class="cls-1" d="M55.8,84.02h-3.67v10.22h-3.93v-31.22h8.94c2.6,.35,4.78,1.4,6.53,3.17,2.04,2.04,3.06,4.48,3.06,7.31s-1.05,5.32-3.15,7.42c-1.39,1.4-2.62,2.23-3.69,2.5l7.01,10.83h-4.53l-6.57-10.22Zm-3.67-17.57v14.15h3.86c1.82,0,3.41-.68,4.77-2.03,1.36-1.35,2.04-3.04,2.04-5.07s-.68-3.69-2.04-5.03c-1.36-1.35-2.95-2.02-4.77-2.02h-3.86Z"/>
    <path class="cls-1" d="M83.21,63.02l11.3,31.22h-4.08l-4.71-12.97h-8.48l-4.8,12.97h-4.1l11.46-31.22h3.41Zm1.28,14.86l-2.99-8.29-3.02,8.29h6.01Z"/>
    <path class="cls-2" d="M125.02,63.02v31.22h-3.93v-25.39l-10.26,13.47-10.28-13.47v25.39h-3.93v-31.22h4.19l10.02,13.13,10-13.13h4.19Z"/>
    <path class="cls-1" d="M133.61,63.02v31.22h-3.93v-31.22h3.93Z"/>
    <path class="cls-1" d="M138.69,94.24v-31.22h3.93v27.82h11.22v3.41h-15.14Z"/>
    <path class="cls-1" d="M157.39,94.24v-31.22h3.93v27.82h11.22v3.41h-15.14Z"/>
    <path class="cls-1" d="M201.18,67.32c3.15,3.15,4.72,6.91,4.72,11.26s-1.57,8.15-4.72,11.29c-3.15,3.15-6.99,4.72-11.53,4.72s-8.36-1.57-11.51-4.72c-3.15-3.15-4.72-6.91-4.72-11.29s1.57-8.11,4.72-11.26c3.15-3.15,6.98-4.73,11.51-4.73s8.39,1.58,11.53,4.73Zm-11.53-1.3c-3.33,0-6.21,1.22-8.64,3.66-2.43,2.44-3.65,5.41-3.65,8.91s1.22,6.51,3.65,8.94c2.43,2.43,5.31,3.65,8.64,3.65s6.23-1.21,8.66-3.65c2.43-2.43,3.64-5.41,3.64-8.94s-1.21-6.47-3.64-8.91c-2.43-2.44-5.32-3.66-8.66-3.66Z"/>
  </g>
</svg>